<?xml version="1.0" encoding="utf-8"?><svg xmlns="http://www.w3.org/2000/svg" xmlns:xlink="http://www.w3.org/1999/xlink"><symbol viewBox="0 0 9 19" id="i-facebook"><path d="M1.917 3.682v2.613H0v3.199h1.917V19h3.937V9.494h2.641s.248-1.535.367-3.21H5.869V4.096c0-.327.429-.767.854-.767h2.145v-3.33L5.95 0C1.818 0 1.917 3.203 1.917 3.682z"/></symbol><symbol viewBox="0 0 19 17" id="i-twitter"><path d="M18.635 2.623a7.074 7.074 0 0 1-2.199.649A4.1 4.1 0 0 0 18.124.998a7.684 7.684 0 0 1-2.434 1.001c-.695-.804-1.692-1.305-2.789-1.305-2.111 0-3.822 1.841-3.822 4.117 0 .319.033.636.096.933-3.172-.163-5.993-1.808-7.88-4.293A4.333 4.333 0 0 0 .779 3.52c0 1.425.674 2.691 1.702 3.419a3.593 3.593 0 0 1-1.732-.512v.058c0 1.99 1.317 3.65 3.066 4.034a3.54 3.54 0 0 1-1.01.136 3.06 3.06 0 0 1-.716-.072c.484 1.641 1.898 2.833 3.57 2.857-1.308 1.109-2.956 1.762-4.747 1.762-.31 0-.615-.018-.913-.058C1.691 16.316 3.697 17 5.86 17c7.032 0 10.879-6.273 10.879-11.712 0-.174-.004-.351-.013-.526a8.301 8.301 0 0 0 1.909-2.139z"/></symbol></svg>